<svg xmlns="http://www.w3.org/2000/svg" xmlns:xlink="http://www.w3.org/1999/xlink" width="48" zoomAndPan="magnify" viewBox="0 0 36 30.000001" height="40" preserveAspectRatio="xMidYMid meet" version="1.2"><defs><clipPath id="c4f70ea93e"><path d="M 0.582031 8 L 10 8 L 10 19 L 0.582031 19 Z M 0.582031 8 "/></clipPath><clipPath id="a1cb81677d"><path d="M 26 8 L 35.417969 8 L 35.417969 19 L 26 19 Z M 26 8 "/></clipPath><clipPath id="50949e0586"><path d="M 0.582031 8 L 9 8 L 9 19 L 0.582031 19 Z M 0.582031 8 "/></clipPath><clipPath id="efdaa89450"><path d="M 27 8 L 35.417969 8 L 35.417969 19 L 27 19 Z M 27 8 "/></clipPath></defs><g id="b1c051dcb9"><g style="fill:#ffffff;fill-opacity:0.8196;"><g transform="translate(7.481904, 23.567743)"><path style="stroke:none" d="M 1.875 0.09375 C 1.695312 0.09375 1.5625 0.03125 1.46875 -0.09375 C 1.375 -0.226562 1.328125 -0.390625 1.328125 -0.578125 C 1.347656 -0.878906 1.410156 -1.0625 1.515625 -1.125 C 1.617188 -1.1875 1.8125 -1.21875 2.09375 -1.21875 C 2.675781 -1.21875 3.101562 -1.320312 3.375 -1.53125 C 3.65625 -1.738281 3.820312 -1.988281 3.875 -2.28125 C 3.9375 -2.582031 3.976562 -3.003906 4 -3.546875 L 4.0625 -15.578125 C 4.0625 -16.179688 3.992188 -16.640625 3.859375 -16.953125 C 3.734375 -17.273438 3.523438 -17.503906 3.234375 -17.640625 C 2.953125 -17.785156 2.550781 -17.90625 2.03125 -18 C 1.6875 -18.0625 1.472656 -18.125 1.390625 -18.1875 C 1.304688 -18.25 1.265625 -18.421875 1.265625 -18.703125 C 1.265625 -18.941406 1.332031 -19.101562 1.46875 -19.1875 C 1.601562 -19.269531 1.8125 -19.3125 2.09375 -19.3125 C 3.34375 -19.3125 4.332031 -19.222656 5.0625 -19.046875 C 5.789062 -18.878906 6.429688 -18.570312 6.984375 -18.125 C 7.546875 -17.675781 8.160156 -17 8.828125 -16.09375 L 17.125 -5.1875 L 17.21875 -5.1875 L 17.15625 -15.578125 C 17.132812 -16.128906 17.09375 -16.550781 17.03125 -16.84375 C 16.96875 -17.132812 16.800781 -17.382812 16.53125 -17.59375 C 16.257812 -17.8125 15.832031 -17.921875 15.25 -17.921875 L 15.0625 -17.921875 C 14.863281 -17.921875 14.71875 -17.953125 14.625 -18.015625 C 14.53125 -18.085938 14.472656 -18.265625 14.453125 -18.546875 C 14.453125 -18.734375 14.503906 -18.890625 14.609375 -19.015625 C 14.710938 -19.148438 14.84375 -19.21875 15 -19.21875 C 16.289062 -19.15625 17.265625 -19.125 17.921875 -19.125 C 18.296875 -19.125 19.03125 -19.144531 20.125 -19.1875 L 20.765625 -19.21875 C 20.941406 -19.21875 21.078125 -19.148438 21.171875 -19.015625 C 21.265625 -18.890625 21.3125 -18.734375 21.3125 -18.546875 C 21.289062 -18.242188 21.226562 -18.0625 21.125 -18 C 21.019531 -17.945312 20.828125 -17.921875 20.546875 -17.921875 C 19.960938 -17.921875 19.535156 -17.8125 19.265625 -17.59375 C 18.992188 -17.382812 18.828125 -17.132812 18.765625 -16.84375 C 18.703125 -16.550781 18.660156 -16.128906 18.640625 -15.578125 L 18.578125 -0.296875 C 18.554688 -0.0351562 18.304688 0.09375 17.828125 0.09375 C 17.441406 0.09375 17.144531 -0.0351562 16.9375 -0.296875 L 5.515625 -15.578125 L 5.421875 -15.578125 L 5.484375 -3.546875 C 5.503906 -3.003906 5.546875 -2.582031 5.609375 -2.28125 C 5.671875 -1.988281 5.835938 -1.738281 6.109375 -1.53125 C 6.378906 -1.320312 6.804688 -1.21875 7.390625 -1.21875 L 7.578125 -1.21875 C 7.773438 -1.21875 7.921875 -1.179688 8.015625 -1.109375 C 8.109375 -1.035156 8.164062 -0.859375 8.1875 -0.578125 C 8.1875 -0.390625 8.140625 -0.226562 8.046875 -0.09375 C 7.953125 0.03125 7.816406 0.09375 7.640625 0.09375 C 6.347656 0.03125 5.367188 0 4.703125 0 C 4.296875 0 3.585938 0.0195312 2.578125 0.0625 Z M 1.875 0.09375 "/></g></g><g style="fill:#004aad;fill-opacity:1;"><g transform="translate(6.829813, 22.636461)"><path style="stroke:none" d="M 1.875 0.09375 C 1.695312 0.09375 1.5625 0.03125 1.46875 -0.09375 C 1.375 -0.226562 1.328125 -0.390625 1.328125 -0.578125 C 1.347656 -0.878906 1.410156 -1.0625 1.515625 -1.125 C 1.617188 -1.1875 1.8125 -1.21875 2.09375 -1.21875 C 2.675781 -1.21875 3.101562 -1.320312 3.375 -1.53125 C 3.65625 -1.738281 3.820312 -1.988281 3.875 -2.28125 C 3.9375 -2.582031 3.976562 -3.003906 4 -3.546875 L 4.0625 -15.578125 C 4.0625 -16.179688 3.992188 -16.640625 3.859375 -16.953125 C 3.734375 -17.273438 3.523438 -17.503906 3.234375 -17.640625 C 2.953125 -17.785156 2.550781 -17.90625 2.03125 -18 C 1.6875 -18.0625 1.472656 -18.125 1.390625 -18.1875 C 1.304688 -18.25 1.265625 -18.421875 1.265625 -18.703125 C 1.265625 -18.941406 1.332031 -19.101562 1.46875 -19.1875 C 1.601562 -19.269531 1.8125 -19.3125 2.09375 -19.3125 C 3.34375 -19.3125 4.332031 -19.222656 5.0625 -19.046875 C 5.789062 -18.878906 6.429688 -18.570312 6.984375 -18.125 C 7.546875 -17.675781 8.160156 -17 8.828125 -16.09375 L 17.125 -5.1875 L 17.21875 -5.1875 L 17.15625 -15.578125 C 17.132812 -16.128906 17.09375 -16.550781 17.03125 -16.84375 C 16.96875 -17.132812 16.800781 -17.382812 16.53125 -17.59375 C 16.257812 -17.8125 15.832031 -17.921875 15.25 -17.921875 L 15.0625 -17.921875 C 14.863281 -17.921875 14.71875 -17.953125 14.625 -18.015625 C 14.53125 -18.085938 14.472656 -18.265625 14.453125 -18.546875 C 14.453125 -18.734375 14.503906 -18.890625 14.609375 -19.015625 C 14.710938 -19.148438 14.84375 -19.21875 15 -19.21875 C 16.289062 -19.15625 17.265625 -19.125 17.921875 -19.125 C 18.296875 -19.125 19.03125 -19.144531 20.125 -19.1875 L 20.765625 -19.21875 C 20.941406 -19.21875 21.078125 -19.148438 21.171875 -19.015625 C 21.265625 -18.890625 21.3125 -18.734375 21.3125 -18.546875 C 21.289062 -18.242188 21.226562 -18.0625 21.125 -18 C 21.019531 -17.945312 20.828125 -17.921875 20.546875 -17.921875 C 19.960938 -17.921875 19.535156 -17.8125 19.265625 -17.59375 C 18.992188 -17.382812 18.828125 -17.132812 18.765625 -16.84375 C 18.703125 -16.550781 18.660156 -16.128906 18.640625 -15.578125 L 18.578125 -0.296875 C 18.554688 -0.0351562 18.304688 0.09375 17.828125 0.09375 C 17.441406 0.09375 17.144531 -0.0351562 16.9375 -0.296875 L 5.515625 -15.578125 L 5.421875 -15.578125 L 5.484375 -3.546875 C 5.503906 -3.003906 5.546875 -2.582031 5.609375 -2.28125 C 5.671875 -1.988281 5.835938 -1.738281 6.109375 -1.53125 C 6.378906 -1.320312 6.804688 -1.21875 7.390625 -1.21875 L 7.578125 -1.21875 C 7.773438 -1.21875 7.921875 -1.179688 8.015625 -1.109375 C 8.109375 -1.035156 8.164062 -0.859375 8.1875 -0.578125 C 8.1875 -0.390625 8.140625 -0.226562 8.046875 -0.09375 C 7.953125 0.03125 7.816406 0.09375 7.640625 0.09375 C 6.347656 0.03125 5.367188 0 4.703125 0 C 4.296875 0 3.585938 0.0195312 2.578125 0.0625 Z M 1.875 0.09375 "/></g></g><g clip-rule="nonzero" clip-path="url(#c4f70ea93e)"><g style="fill:#ffffff;fill-opacity:1;"><g transform="translate(-0.810534, 20.218594)"><path style="stroke:none" d="M 9.976562 -11.480469 L 9.976562 -10.253906 L 2.292969 -6.558594 L 2.171875 -6.804688 L 2.292969 -7.050781 L 9.976562 -3.332031 L 9.976562 -1.671875 L 0.605469 -6.125 L 0.605469 -7.460938 L 9.976562 -11.914062 Z M 9.429688 -11.480469 L 9.703125 -11.480469 L 9.820312 -11.234375 L 0.996094 -7.039062 L 0.878906 -7.289062 L 1.152344 -7.289062 L 1.152344 -6.300781 L 0.878906 -6.300781 L 0.996094 -6.546875 L 9.820312 -2.355469 L 9.703125 -2.105469 L 9.429688 -2.105469 L 9.429688 -3.160156 L 9.703125 -3.160156 L 9.582031 -2.914062 L 1.542969 -6.804688 L 9.582031 -10.675781 L 9.703125 -10.425781 L 9.429688 -10.425781 Z M 9.429688 -11.480469 "/></g></g></g><g style="fill:#ffffff;fill-opacity:1;"><g transform="translate(9.755794, 20.218594)"><path style="stroke:none" d=""/></g></g><g style="fill:#ffffff;fill-opacity:1;"><g transform="translate(15.243356, 20.218594)"><path style="stroke:none" d=""/></g></g><g style="fill:#ffffff;fill-opacity:1;"><g transform="translate(20.730917, 20.218594)"><path style="stroke:none" d=""/></g></g><g clip-rule="nonzero" clip-path="url(#a1cb81677d)"><g style="fill:#ffffff;fill-opacity:1;"><g transform="translate(26.223751, 20.218594)"><path style="stroke:none" d="M 0.996094 -11.726562 L 9.976562 -7.460938 L 9.976562 -6.125 L 0.605469 -1.671875 L 0.605469 -3.332031 L 8.265625 -7.050781 L 8.386719 -6.804688 L 8.265625 -6.558594 L 0.605469 -10.253906 L 0.605469 -11.914062 Z M 0.761719 -11.234375 L 0.878906 -11.480469 L 1.152344 -11.480469 L 1.152344 -10.425781 L 0.878906 -10.425781 L 0.996094 -10.675781 L 9.015625 -6.804688 L 0.996094 -2.914062 L 0.878906 -3.160156 L 1.152344 -3.160156 L 1.152344 -2.105469 L 0.878906 -2.105469 L 0.761719 -2.355469 L 9.585938 -6.546875 L 9.703125 -6.300781 L 9.429688 -6.300781 L 9.429688 -7.289062 L 9.703125 -7.289062 L 9.585938 -7.039062 Z M 0.761719 -11.234375 "/></g></g></g><g clip-rule="nonzero" clip-path="url(#50949e0586)"><g style="fill:#000000;fill-opacity:1;"><g transform="translate(-0.810534, 20.218594)"><path style="stroke:none" d="M 9.703125 -11.484375 L 9.703125 -10.421875 L 2.171875 -6.8125 L 9.703125 -3.15625 L 9.703125 -2.109375 L 0.875 -6.296875 L 0.875 -7.28125 Z M 9.703125 -11.484375 "/></g></g></g><g style="fill:#000000;fill-opacity:1;"><g transform="translate(9.755794, 20.218594)"><path style="stroke:none" d=""/></g></g><g style="fill:#000000;fill-opacity:1;"><g transform="translate(15.243356, 20.218594)"><path style="stroke:none" d=""/></g></g><g style="fill:#000000;fill-opacity:1;"><g transform="translate(20.730917, 20.218594)"><path style="stroke:none" d=""/></g></g><g clip-rule="nonzero" clip-path="url(#efdaa89450)"><g style="fill:#000000;fill-opacity:1;"><g transform="translate(26.223751, 20.218594)"><path style="stroke:none" d="M 0.875 -11.484375 L 9.703125 -7.28125 L 9.703125 -6.296875 L 0.875 -2.109375 L 0.875 -3.15625 L 8.390625 -6.8125 L 0.875 -10.421875 Z M 0.875 -11.484375 "/></g></g></g></g></svg>